<?xml version="1.0" encoding="UTF-8"?>
<svg width="128px" height="87px" viewBox="0 0 128 87" version="1.1" xmlns="http://www.w3.org/2000/svg" xmlns:xlink="http://www.w3.org/1999/xlink">
    <!-- Generator: Sketch 53.2 (72643) - https://sketchapp.com -->
    <title>Combined Shape</title>
    <desc>Created with Sketch.</desc>
    <g id="Page-1" stroke="none" stroke-width="1" fill="none" fill-rule="evenodd">
        <g id="Artboard" transform="translate(0.000000, -21.000000)" fill="#000000">
            <path d="M97.0499194,21 C97.0499194,21 66,59.8237086 66,76.9642694 C66,94.1048301 79.8791727,108 97,108 C114.120827,108 128,94.1048301 128,76.9642694 C128,59.8237086 97.0499194,21 97.0499194,21 Z M53,66.3901345 C53,68.9327481 52.6444579,71.2869847 51.9333631,73.4529148 C51.2222684,75.6188449 50.2267506,77.4786918 48.94678,79.0325112 C47.6668093,80.5863306 46.1261271,81.8026862 44.3246869,82.6816143 C42.5232468,83.5605425 40.5480131,84 38.3989267,84 C37.0083413,84 35.7046871,83.8744407 34.4879249,83.6233184 C33.2711627,83.3721961 32.0781215,82.9876708 30.9087657,82.4697309 C29.7394098,81.9517911 28.5858733,81.3004524 27.4481216,80.5156951 C26.31037,79.7309378 25.1410316,78.7892432 23.9400716,77.690583 C22.3914651,76.4349713 20.9060894,75.4618869 19.4838998,74.7713004 C18.0617102,74.080714 16.6079383,73.735426 15.1225403,73.735426 C14.2692265,73.735426 13.4475293,73.9473073 12.657424,74.3710762 C11.8673186,74.7948452 11.1641355,75.3598619 10.5478533,76.0661435 C9.93157116,76.7724251 9.44171321,77.5807129 9.07826476,78.4910314 C8.71481631,79.4013498 8.53309481,80.3430445 8.53309481,81.3161435 L0,80.2802691 C0,77.7376554 0.347641127,75.4069613 1.04293381,73.2881166 C1.73822649,71.1692719 2.72584333,69.3486623 4.00581395,67.8262332 C5.28578458,66.303804 6.81856591,65.1188383 8.60420394,64.2713004 C10.389842,63.4237626 12.3571747,63 14.5062612,63 C17.2558277,63 19.7920277,63.533627 22.1149374,64.6008969 C24.437847,65.6681668 26.7686228,67.2219629 29.1073345,69.2623318 C30.655941,70.5807241 32.1334157,71.5695034 33.5398032,72.2286996 C34.9461907,72.8878957 36.360458,73.2174888 37.7826476,73.2174888 C38.6359613,73.2174888 39.4418567,72.99776 40.2003578,72.558296 C40.9588589,72.1188319 41.6225374,71.5381202 42.1914132,70.8161435 C42.7602891,70.0941668 43.2185433,69.270184 43.5661896,68.3441704 C43.913836,67.4181568 44.0876565,66.4686147 44.0876565,65.4955157 L53,66.3901345 Z" id="Combined-Shape"></path>
        </g>
    </g>
</svg>